# xmcd
#
# Track frame offsets: 
#        150
#        16754
#        30590
#        48939
#        61691
#        77092
#        93243
#        103226
#        126832
#        145904
#
# Disc length: 2191 seconds
#
# Revision: 2
# Processed by: cddbd v1.5.1PL0 Copyright (c) Steve Scherf et al.
# Submitted via: ExactAudioCopy v0.95a4
#
DISCID=76088d0a
DTITLE=Aborted - The Archaic Abattoir (Limited Boxset Edition)
DYEAR=2005
DGENRE=Death Metal
TTITLE0=Dead Wreckoning
TTITLE1=Blood Fixing the Bled
TTITLE2=Gestated Rabidity
TTITLE3=Hecatomb
TTITLE4=The Gangrenous Epitaph
TTITLE5=The Inertia
TTITLE6=A Cold Logistic Slaughter
TTITLE7=Threading on Vermillion Deception
TTITLE8=Voracious Haemoglobinic Syndrome
TTITLE9=Descend to Extirpation
EXTD=
EXTT0=
EXTT1=
EXTT2=
EXTT3=
EXTT4=
EXTT5=
EXTT6=
EXTT7=
EXTT8=
EXTT9=
PLAYORDER=
